<svg width="512" height="512" viewBox="0 0 512 512" fill="none" xmlns="http://www.w3.org/2000/svg">
<rect width="512" height="512" fill="#1E1E1E"/>
<path d="M429.333 56H82.6667C67.9391 56 56 67.9391 56 82.6667V429.333C56 444.061 67.9391 456 82.6667 456H429.333C444.061 456 456 444.061 456 429.333V82.6667C456 67.9391 444.061 56 429.333 56Z" stroke="#E5E5E5" stroke-width="16"/>
<path d="M224.8 131.2H141.6C135.856 131.2 131.2 135.856 131.2 141.6V370.4C131.2 376.144 135.856 380.8 141.6 380.8H224.8C230.544 380.8 235.2 376.144 235.2 370.4V141.6C235.2 135.856 230.544 131.2 224.8 131.2Z" fill="#69F0AE"/>
<path d="M370.4 131.2H266.4C260.656 131.2 256 135.856 256 141.6V256C256 261.744 260.656 266.4 266.4 266.4H370.4C376.144 266.4 380.8 261.744 380.8 256V141.6C380.8 135.856 376.144 131.2 370.4 131.2Z" fill="#69F0AE"/>
</svg>
