<svg width="64" height="64" viewBox="0 0 64 64" fill="none" xmlns="http://www.w3.org/2000/svg">
<g clip-path="url(#clip0_8_2)">
<path d="M32 2L62 32L32 62L2 32L32 2Z" stroke="#0E8345" stroke-width="4" stroke-linejoin="round"/>
<path d="M43 18.8H21C20.3925 18.8 19.9 19.2925 19.9 19.9V24.3C19.9 24.9075 20.3925 25.4 21 25.4H43C43.6075 25.4 44.1 24.9075 44.1 24.3V19.9C44.1 19.2925 43.6075 18.8 43 18.8Z" fill="#0E8345"/>
<path d="M43 27.6H21C20.3925 27.6 19.9 28.0925 19.9 28.7V33.1C19.9 33.7075 20.3925 34.2 21 34.2H43C43.6075 34.2 44.1 33.7075 44.1 33.1V28.7C44.1 28.0925 43.6075 27.6 43 27.6Z" fill="#0E8345"/>
<path d="M29.8 36.4H21C20.3925 36.4 19.9 36.8925 19.9 37.5V44.1C19.9 44.7075 20.3925 45.2 21 45.2H29.8C30.4075 45.2 30.9 44.7075 30.9 44.1V37.5C30.9 36.8925 30.4075 36.4 29.8 36.4Z" fill="#0E8345"/>
</g>
<defs>
<clipPath id="clip0_8_2">
<rect width="64" height="64" fill="white"/>
</clipPath>
</defs>
</svg>
