<svg width="64" height="64" viewBox="0 0 64 64" fill="none" xmlns="http://www.w3.org/2000/svg">
<g clip-path="url(#clip0_13_22)">
<path d="M58 2H6C3.79086 2 2 3.79086 2 6V58C2 60.2091 3.79086 62 6 62H58C60.2091 62 62 60.2091 62 58V6C62 3.79086 60.2091 2 58 2Z" stroke="#333333" stroke-width="4"/>
<path d="M28.1 16.4H17.7C16.982 16.4 16.4 16.982 16.4 17.7V46.3C16.4 47.018 16.982 47.6 17.7 47.6H28.1C28.818 47.6 29.4 47.018 29.4 46.3V17.7C29.4 16.982 28.818 16.4 28.1 16.4Z" fill="#0E8345"/>
<path d="M46.3 16.4H33.3C32.582 16.4 32 16.982 32 17.7V32C32 32.718 32.582 33.3 33.3 33.3H46.3C47.018 33.3 47.6 32.718 47.6 32V17.7C47.6 16.982 47.018 16.4 46.3 16.4Z" fill="#0E8345"/>
</g>
<defs>
<clipPath id="clip0_13_22">
<rect width="64" height="64" fill="white"/>
</clipPath>
</defs>
</svg>
